<?xml version="1.0" standalone="no"?>
<!DOCTYPE svg PUBLIC "-//W3C//DTD SVG 20010904//EN"
 "http://www.w3.org/TR/2001/REC-SVG-20010904/DTD/svg10.dtd">
<svg version="1.0" xmlns="http://www.w3.org/2000/svg"
 width="327.000000pt" height="327.000000pt" viewBox="0 0 327.000000 327.000000"
 preserveAspectRatio="xMidYMid meet">

<g transform="translate(0.000000,327.000000) scale(0.100000,-0.100000)"
fill="#000000" stroke="none">
<path d="M0 1635 l0 -1635 1635 0 1635 0 0 1635 0 1635 -1635 0 -1635 0 0
-1635z m1735 1200 c546 -58 995 -105 999 -105 3 0 6 -4 6 -10 0 -7 -337 -10
-990 -10 l-990 0 0 -1200 c0 -660 -4 -1200 -8 -1200 -5 0 -23 181 -41 402 -18
222 -63 777 -100 1233 -37 457 -65 832 -63 835 3 3 7 -2 10 -10 9 -26 58 -69
87 -76 15 -4 45 -1 66 5 94 28 106 157 22 220 -23 17 -25 20 -9 21 10 0 465
-47 1011 -105z m1002 -552 c-20 -640 -146 -1135 -378 -1484 -83 -124 -238
-280 -353 -354 -82 -54 -246 -134 -272 -135 -14 0 -36 54 -54 129 -9 36 -11
91 -7 163 3 59 2 108 -1 108 -4 0 -29 -18 -56 -40 -63 -52 -98 -53 -155 -6
-44 37 -44 40 9 51 19 4 58 23 87 42 44 30 58 35 92 30 l39 -5 -14 40 c-16 48
-18 90 -4 104 7 7 6 22 -4 46 -11 26 -14 59 -10 129 l5 94 -20 -24 c-12 -13
-35 -69 -53 -125 -17 -55 -33 -103 -34 -105 -1 -1 -13 4 -25 13 -22 15 -23 14
-41 -15 -16 -26 -17 -35 -6 -70 10 -36 10 -42 -10 -62 l-22 -21 0 24 c0 38
-13 51 -59 61 -23 5 -55 19 -71 30 -34 26 -72 20 -88 -13 -10 -22 -11 -22 -11
8 -1 51 27 68 102 61 34 -3 69 -9 78 -12 11 -4 22 3 34 21 17 26 17 27 -6 45
l-24 18 31 33 c61 63 94 166 94 290 0 56 -15 72 -23 24 -10 -64 -59 -150 -122
-212 -64 -65 -107 -84 -145 -64 -20 11 -19 13 29 66 64 70 92 142 97 254 l5
85 -19 -47 c-30 -72 -58 -113 -113 -162 -59 -53 -108 -73 -139 -56 -21 11 -20
12 18 54 81 88 122 192 121 305 l0 66 -24 -68 c-42 -123 -122 -207 -195 -207
-60 0 -63 16 -13 66 24 25 53 65 64 89 27 62 59 219 58 290 l-1 60 -17 -65
c-48 -178 -144 -297 -218 -269 l-23 8 30 48 c53 83 61 128 69 373 8 236 16
276 62 342 42 59 149 85 222 54 67 -27 116 -120 101 -189 -3 -18 -15 -49 -25
-69 -28 -55 -25 -107 10 -156 49 -67 196 -162 251 -162 15 0 20 7 20 28 0 16
11 66 25 112 28 95 32 156 10 186 -8 12 -37 31 -64 43 -49 21 -71 44 -71 75 0
11 8 10 39 -7 51 -28 65 -14 23 24 -34 30 -60 36 -93 19 -16 -9 -19 -7 -19 13
0 41 23 62 68 60 27 -1 42 3 46 13 7 18 73 18 106 -1 14 -8 28 -14 33 -15 4 0
7 29 7 65 l0 65 512 0 511 0 -6 -207z"/>
<path d="M2231 2390 c-112 -26 -158 -136 -107 -257 14 -35 26 -73 26 -86 0
-73 -167 -218 -277 -242 -30 -6 -33 -4 -33 17 0 13 -11 64 -25 113 -45 161
-35 208 52 247 39 17 73 50 73 71 0 4 -10 1 -22 -7 -25 -18 -68 -21 -68 -6 0
6 12 23 26 37 22 22 32 25 70 20 37 -4 44 -2 44 13 0 30 -36 53 -73 47 -26 -4
-36 -1 -46 15 -10 16 -19 19 -49 13 -20 -4 -49 -13 -64 -21 l-28 -15 0 -354 0
-355 23 0 c41 0 124 27 188 61 79 41 190 151 242 239 39 67 87 203 87 245 0
13 5 27 11 31 15 9 3 -106 -22 -216 -60 -259 -238 -431 -481 -466 l-48 -6 1
-597 0 -596 22 55 c18 47 21 76 20 192 0 76 3 138 7 138 4 0 15 -9 26 -21 10
-12 38 -32 61 -45 48 -29 72 -26 122 15 l35 29 -56 16 c-30 9 -61 23 -68 32
-27 31 -68 45 -105 35 -19 -5 -35 -7 -35 -4 0 3 7 30 16 60 13 44 14 60 4 83
-9 22 -9 33 0 51 9 15 11 47 6 98 -3 42 -2 90 2 106 l9 30 21 -35 c12 -19 34
-73 49 -120 31 -97 38 -109 55 -92 7 7 17 12 24 12 19 0 37 -56 30 -95 -4 -20
-4 -45 -1 -56 6 -18 8 -17 23 13 13 25 26 35 57 42 22 5 52 17 67 27 32 23 66
24 90 2 15 -13 18 -14 18 -1 0 48 -45 61 -155 44 -48 -7 -51 -6 -67 23 -16 29
-16 30 7 45 l24 15 -31 33 c-58 62 -80 128 -86 254 -3 76 -1 114 6 114 6 0 13
-18 17 -41 20 -116 156 -289 228 -289 46 0 66 15 39 29 -33 18 -93 108 -113
170 -21 68 -37 231 -22 231 5 0 15 -23 22 -50 27 -106 152 -240 223 -240 44 0
42 18 -7 71 -54 57 -80 112 -100 207 -16 75 -20 162 -6 162 5 0 14 -21 21 -47
18 -73 69 -161 116 -199 44 -37 99 -52 124 -35 12 9 8 17 -26 53 -23 24 -52
62 -64 86 -41 84 -87 370 -61 386 6 4 11 0 11 -10 0 -40 34 -154 67 -222 36
-77 94 -132 139 -132 35 0 37 15 9 56 -48 70 -57 123 -65 364 -6 198 -9 232
-29 282 -39 100 -124 150 -220 128z m-366 -39 c8 -14 -36 -41 -67 -41 -34 0
-36 13 -6 34 25 18 64 21 73 7z m455 -51 c22 -40 -26 -80 -58 -48 -13 13 -16
50 -5 61 14 14 53 6 63 -13z m-70 -65 c17 -21 -2 -65 -28 -65 -22 0 -42 19
-42 40 0 37 47 53 70 25z m125 -35 c0 -32 -2 -35 -30 -35 -24 0 -31 5 -33 23
-6 38 5 54 35 50 25 -3 28 -7 28 -38z"/>
<path d="M1599 2336 c13 -15 81 -27 81 -14 0 12 -37 28 -66 28 -21 0 -24 -3
-15 -14z"/>
<path d="M1142 2308 c-30 -30 3 -77 40 -57 30 16 16 69 -17 69 -6 0 -16 -5
-23 -12z"/>
<path d="M1212 2238 c-18 -18 -14 -46 7 -58 34 -18 67 30 39 58 -7 7 -17 12
-23 12 -6 0 -16 -5 -23 -12z"/>
<path d="M1082 2228 c-30 -30 11 -85 44 -57 25 21 11 69 -21 69 -6 0 -16 -5
-23 -12z"/>
<path d="M1176 2120 c31 -318 214 -535 488 -578 l57 -9 -3 51 -3 51 -55 8
c-88 12 -192 67 -271 144 -106 102 -163 199 -204 346 l-15 52 6 -65z"/>
</g>
</svg>
